<svg xmlns="http://www.w3.org/2000/svg" width="760" height="220" viewBox="0 0 760 220" role="img" aria-labelledby="title desc">
  <title id="title">dp.cards logo option 2</title>
  <desc id="desc">Card stack logo for dp.cards.</desc>
  <rect width="760" height="220" rx="28" fill="#ffffff"/>
  <g transform="translate(58 42)">
    <rect x="20" y="12" width="98" height="128" rx="14" fill="#d9e1ec" transform="rotate(-9 69 76)"/>
    <rect x="44" y="6" width="98" height="128" rx="14" fill="#155eef" transform="rotate(7 93 70)"/>
    <rect x="32" y="24" width="98" height="128" rx="14" fill="#ffffff" stroke="#101828" stroke-width="7"/>
    <path d="M60 63h20c22 0 37 15 37 37s-15 37-37 37H60V63Zm18 16v42h3c11 0 20-8 20-21s-9-21-20-21h-3Z" fill="#101828"/>
    <circle cx="106" cy="57" r="10" fill="#c33b32"/>
  </g>
  <g transform="translate(228 68)">
    <text x="0" y="60" font-family="Inter, Arial, sans-serif" font-size="64" font-weight="950" letter-spacing="0" fill="#101828">dp.cards</text>
    <text x="2" y="116" font-family="Inter, Arial, sans-serif" font-size="22" font-weight="850" letter-spacing="0" fill="#155eef">sealed boxes / packs / slabs</text>
  </g>
</svg>
