<svg xmlns="http://www.w3.org/2000/svg" width="760" height="220" viewBox="0 0 760 220" role="img" aria-labelledby="title desc">
  <title id="title">dp.cards logo</title>
  <desc id="desc">Vault monogram logo for dp.cards.</desc>
  <rect width="760" height="220" rx="28" fill="#ffffff"/>
  <g transform="translate(50 40)">
    <rect width="140" height="140" rx="22" fill="#101828"/>
    <rect x="22" y="22" width="92" height="114" rx="12" fill="#ffffff" opacity="0.12"/>
    <rect x="36" y="20" width="92" height="114" rx="12" fill="#155eef" transform="rotate(8 82 77)"/>
    <rect x="24" y="26" width="92" height="114" rx="12" fill="#ffffff"/>
    <path d="M54 52h26c23 0 39 16 39 40s-16 40-39 40H54V52Zm20 18v44h8c11 0 19-9 19-22s-8-22-19-22h-8Z" fill="#101828"/>
    <path d="M54 78h22c20 0 33 13 33 33s-13 33-33 33H54v-18h21c10 0 16-6 16-15s-6-15-16-15H54V78Z" fill="#155eef" opacity="0.9"/>
  </g>
  <g transform="translate(225 68)">
    <text x="0" y="58" font-family="Inter, Arial, sans-serif" font-size="62" font-weight="900" letter-spacing="0" fill="#101828">dp.cards</text>
    <rect x="4" y="82" width="142" height="8" rx="4" fill="#155eef"/>
    <text x="0" y="118" font-family="Inter, Arial, sans-serif" font-size="22" font-weight="800" letter-spacing="0" fill="#667085">Japanese trading cards</text>
  </g>
</svg>
