<svg xmlns="http://www.w3.org/2000/svg" width="760" height="220" viewBox="0 0 760 220" role="img" aria-labelledby="title desc">
  <title id="title">dp.cards logo option 3</title>
  <desc id="desc">Collector seal logo for dp.cards.</desc>
  <rect width="760" height="220" rx="28" fill="#ffffff"/>
  <g transform="translate(62 36)">
    <circle cx="72" cy="72" r="70" fill="#101828"/>
    <circle cx="72" cy="72" r="55" fill="#ffffff"/>
    <path d="M42 52h28c20 0 34 14 34 35s-14 35-34 35H42V52Zm18 17v35h8c10 0 17-7 17-18s-7-17-17-17h-8Z" fill="#101828"/>
    <path d="M88 45h27v16h-27v-16Zm0 23h21c17 0 29 12 29 28s-12 28-29 28H88v-16h20c8 0 14-5 14-12s-6-12-14-12H88V68Z" fill="#155eef"/>
    <path d="M30 38l13-20 12 20M100 38l12-20 13 20" fill="none" stroke="#b9892b" stroke-width="6" stroke-linecap="round" stroke-linejoin="round"/>
  </g>
  <g transform="translate(228 69)">
    <text x="0" y="60" font-family="Georgia, 'Times New Roman', serif" font-size="64" font-weight="700" letter-spacing="0" fill="#101828">dp.cards</text>
    <text x="2" y="114" font-family="Inter, Arial, sans-serif" font-size="22" font-weight="850" letter-spacing="0" fill="#667085">collector supply, confirmed by hand</text>
  </g>
</svg>
